<svg width="256" height="256" viewBox="0 0 256 256" fill="none" xmlns="http://www.w3.org/2000/svg">
  <rect width="256" height="256" rx="56" fill="#111827"/>
  <path d="M58 92.5C58 79.5213 68.5213 69 81.5 69H174.5C187.479 69 198 79.5213 198 92.5V163.5C198 176.479 187.479 187 174.5 187H81.5C68.5213 187 58 176.479 58 163.5V92.5Z" fill="#F5E8D0"/>
  <path d="M88 90H118C126.837 90 134 97.1634 134 106C134 114.837 126.837 122 118 122H88V90Z" fill="#111827"/>
  <path d="M88 132H166V146H88V132Z" fill="#111827"/>
  <path d="M88 156H154V166H88V156Z" fill="#111827"/>
  <path d="M144 89L176 166H161L154 149H128L121 166H107L139 89H144Z" fill="#111827"/>
</svg>
